<svg width="80" height="80" viewBox="0 0 80 80" fill="none" xmlns="http://www.w3.org/2000/svg">
<rect width="80" height="80" rx="20" fill="#26D07C"/>
<path fill-rule="evenodd" clip-rule="evenodd" d="M24.1079 23.108C33.161 14.0549 47.8389 14.0549 56.8921 23.108C65.9451 32.1611 65.9451 46.8389 56.8921 55.8921C48.9572 63.8268 36.6986 64.8078 27.6965 58.8311C27.441 58.6614 27.1287 58.6 26.828 58.66L19.8346 60.0588L21.2417 53.0229C21.3013 52.7252 21.2416 52.416 21.0755 52.1617C15.2025 43.1729 16.2146 31.0012 24.1079 23.108ZM58.5313 21.4688C48.5728 11.5104 32.4271 11.5104 22.4687 21.4688C13.9015 30.036 12.7055 43.1801 18.8769 53.0266L17.2204 61.309C17.1444 61.689 17.2634 62.0819 17.5374 62.3559C17.8115 62.6299 18.2043 62.7488 18.5843 62.673L26.8195 61.026C36.6828 67.3068 49.9195 66.1431 58.5313 57.5313C68.4896 47.5728 68.4896 31.4271 58.5313 21.4688ZM28.9098 31.307C28.8977 30.9093 29.0768 30.4958 29.4081 30.1644L31.3613 28.2113C31.8112 27.7614 32.5031 27.8362 32.8226 28.2887L36.8921 34.0551L35.2023 35.745C34.7229 36.2243 34.6301 37.0056 35.0746 37.5673C35.822 38.5117 37.1767 40.1179 38.7924 41.7335C40.408 43.3492 42.0142 44.7039 42.9586 45.4513C43.5203 45.8958 44.3016 45.803 44.7809 45.3236L46.4708 43.6338L52.2372 47.7033C52.6898 48.0228 52.7646 48.7147 52.3146 49.1646L50.3615 51.1177C50.0301 51.4491 49.6166 51.6282 49.2189 51.6161C46.5006 51.5337 43.7005 50.4263 41.2663 49.0224C38.8376 47.6219 36.826 45.9572 35.6974 44.8285C34.5687 43.6999 32.904 41.6883 31.5034 39.2596C30.0996 36.8253 28.9922 34.0253 28.9098 31.307Z" fill="white"/>
</svg>
