<svg width="48" height="48" viewBox="0 0 48 48" fill="none" xmlns="http://www.w3.org/2000/svg">
<path d="M0.3 24C0.3 10.9664 10.8208 0.390427 23.8324 0.3H24.1676C37.1799 0.390427 47.7 10.9664 47.7 24C47.7 37.0894 37.0894 47.7 24 47.7C10.9112 47.7 0.3 37.0894 0.3 24Z" stroke="#747474" stroke-width="0.6"/>
<path fill-rule="evenodd" clip-rule="evenodd" d="M23.8182 14C21.1516 14 20.8177 14.0118 19.7698 14.0589C18.7252 14.1073 18.0117 14.2729 17.3873 14.5158C16.7406 14.7665 16.194 15.1023 15.6481 15.6481C15.1023 16.194 14.7665 16.7412 14.5158 17.3873C14.2729 18.0117 14.1067 18.7252 14.0596 19.7705C14.0118 20.8177 14 21.1516 14 23.8182C14 26.4848 14.0118 26.8193 14.0596 27.8665C14.1067 28.9112 14.2729 29.6253 14.5158 30.2497C14.7665 30.8951 15.1023 31.443 15.6481 31.9889C16.194 32.5348 16.7406 32.8705 17.3873 33.1212C18.0117 33.3634 18.7252 33.5297 19.7698 33.5775C20.8177 33.6252 21.1516 33.6364 23.8182 33.6364C26.4848 33.6364 26.8193 33.6252 27.8665 33.5775C28.9112 33.5297 29.6247 33.3634 30.2491 33.1212C30.8958 32.8705 31.4423 32.5348 31.9882 31.9889C32.5341 31.443 32.8699 30.8951 33.1212 30.2497C33.3634 29.6253 33.5297 28.9112 33.5775 27.8665C33.6246 26.8193 33.6364 26.4848 33.6364 23.8182C33.6364 21.1516 33.6246 20.8177 33.5775 19.7705C33.5297 18.7252 33.3634 18.0117 33.1212 17.3873C32.8699 16.7412 32.5341 16.194 31.9882 15.6481C31.4423 15.1023 30.8958 14.7665 30.2491 14.5158C29.6247 14.2729 28.9112 14.1073 27.8665 14.0589C26.8193 14.0118 26.4848 14 23.8182 14ZM23.8182 15.7692C26.4396 15.7692 26.7499 15.7791 27.786 15.8268C28.7423 15.87 29.2627 16.0304 29.6089 16.1646C30.0671 16.3426 30.3944 16.5553 30.7374 16.899C31.0817 17.2426 31.2937 17.5699 31.4718 18.0274C31.606 18.3743 31.7663 18.894 31.8102 19.851C31.8573 20.8865 31.8678 21.1967 31.8678 23.8182C31.8678 26.4403 31.8573 26.7505 31.8102 27.786C31.7663 28.743 31.606 29.2627 31.4718 29.6089C31.2937 30.0671 31.0817 30.3937 30.7374 30.738C30.3944 31.081 30.0671 31.2937 29.6089 31.4724C29.2627 31.6066 28.7423 31.767 27.786 31.8102C26.7499 31.8573 26.4403 31.8671 23.8182 31.8671C21.1961 31.8671 20.8865 31.8573 19.8503 31.8102C18.894 31.767 18.3737 31.6066 18.0274 31.4724C17.5692 31.2937 17.2426 31.081 16.899 30.738C16.5553 30.3937 16.3426 30.0671 16.1646 29.6089C16.0304 29.2627 15.87 28.743 15.8262 27.786C15.7791 26.7505 15.7692 26.4403 15.7692 23.8182C15.7692 21.1967 15.7791 20.8865 15.8262 19.851C15.87 18.894 16.0304 18.3743 16.1646 18.0274C16.3426 17.5699 16.5553 17.2426 16.899 16.899C17.2426 16.5553 17.5692 16.3426 18.0274 16.1646C18.3737 16.0304 18.894 15.87 19.8503 15.8268C20.8865 15.7791 21.1967 15.7692 23.8182 15.7692Z" fill="white"/>
<path fill-rule="evenodd" clip-rule="evenodd" d="M23.8182 27.0913C22.0103 27.0913 20.5454 25.6258 20.5454 23.8186C20.5454 22.0107 22.0103 20.5458 23.8182 20.5458C25.626 20.5458 27.0909 22.0107 27.0909 23.8186C27.0909 25.6258 25.626 27.0913 23.8182 27.0913ZM23.8182 18.7766C21.0337 18.7766 18.7769 21.0341 18.7769 23.8186C18.7769 26.603 21.0337 28.8605 23.8182 28.8605C26.6026 28.8605 28.8601 26.603 28.8601 23.8186C28.8601 21.0341 26.6026 18.7766 23.8182 18.7766Z" fill="white"/>
<path fill-rule="evenodd" clip-rule="evenodd" d="M30.2379 18.5774C30.2379 19.228 29.7097 19.7555 29.059 19.7555C28.4084 19.7555 27.8809 19.228 27.8809 18.5774C27.8809 17.9267 28.4084 17.3992 29.059 17.3992C29.7097 17.3992 30.2379 17.9267 30.2379 18.5774Z" fill="white"/>
</svg>
