<svg width="161" height="38" viewBox="0 0 161 38" fill="none" xmlns="http://www.w3.org/2000/svg">
<g id="Logo&#194;&#169;">
<path d="M23.8 30.3H8.05V1.5H0.75V37H23.8V30.3ZM61.6836 19.25C61.6836 8.6 53.9836 0.749999 43.2336 0.749999C32.4836 0.749999 24.7836 8.6 24.7836 19.25C24.7836 29.9 32.4836 37.75 43.2336 37.75C53.9836 37.75 61.6836 29.9 61.6836 19.25ZM53.9836 19.25C53.9836 26.25 49.5336 30.8 43.2336 30.8C36.9336 30.8 32.4836 26.25 32.4836 19.25C32.4836 12.25 36.9336 7.7 43.2336 7.7C49.5336 7.7 53.9836 12.25 53.9836 19.25ZM86.3969 23.9H93.8969C92.6469 28.15 88.8969 30.8 84.0469 30.8C77.6469 30.8 73.5969 26.2 73.5969 19.2C73.5969 12.2 77.5469 7.7 84.0469 7.7C88.5969 7.7 92.2969 10.1 93.3969 14.05H101.247C99.5969 6.1 92.6969 0.749999 84.0469 0.749999C73.8469 0.749999 65.8969 8.1 65.8969 19.2C65.8969 30.3 73.4469 37.55 84.0469 37.55C93.9469 37.55 101.697 30.3 101.697 19.2C101.697 18.1 101.647 17.35 101.647 17.35H86.3969V23.9ZM142.787 19.25C142.787 8.6 135.087 0.749999 124.337 0.749999C113.587 0.749999 105.887 8.6 105.887 19.25C105.887 29.9 113.587 37.75 124.337 37.75C135.087 37.75 142.787 29.9 142.787 19.25ZM135.087 19.25C135.087 26.25 130.637 30.8 124.337 30.8C118.037 30.8 113.587 26.25 113.587 19.25C113.587 12.25 118.037 7.7 124.337 7.7C130.637 7.7 135.087 12.25 135.087 19.25Z" fill="#EEF2F5"/>
<path d="M145.56 29.88C145.56 34.06 148.56 37.26 152.94 37.26C157.32 37.26 160.32 34.06 160.32 29.88C160.32 25.7 157.32 22.5 152.94 22.5C148.56 22.5 145.56 25.7 145.56 29.88ZM146.48 29.88C146.48 26.06 149.06 23.32 152.94 23.32C156.82 23.32 159.4 26.06 159.4 29.88C159.4 33.7 156.82 36.44 152.94 36.44C149.06 36.44 146.48 33.7 146.48 29.88ZM149.22 29.88C149.22 32.1 150.76 33.8 152.92 33.8C155.26 33.8 156.4 32.16 156.54 30.88H155.6C155.44 31.76 154.76 32.96 152.94 32.96C151.18 32.96 150.2 31.64 150.2 29.88C150.2 28.12 151.18 26.8 152.94 26.8C154.76 26.8 155.44 28 155.6 28.88H156.54C156.4 27.6 155.26 25.96 152.92 25.96C150.76 25.96 149.22 27.66 149.22 29.88Z" fill="#FFCC00"/>
</g>
</svg>
